<?xml version="1.0" encoding="UTF-8"?>
<!DOCTYPE svg PUBLIC "-//W3C//DTD SVG 1.1//EN" "http://www.w3.org/Graphics/SVG/1.1/DTD/svg11.dtd">
<svg xmlns="http://www.w3.org/2000/svg" version="1.1" width="348px" height="106px" style="shape-rendering:geometricPrecision; text-rendering:geometricPrecision; image-rendering:optimizeQuality; fill-rule:evenodd; clip-rule:evenodd" xmlns:xlink="http://www.w3.org/1999/xlink">
<g><path style="opacity:0.996" fill="#d95554" d="M 239.5,14.5 C 239.5,15.8333 239.5,17.1667 239.5,18.5C 236.5,18.5 233.5,18.5 230.5,18.5C 222.507,17.8336 214.34,17.5003 206,17.5C 197.472,17.5021 189.305,18.1688 181.5,19.5C 179.335,19.8841 177.668,19.2174 176.5,17.5C 178.184,16.8503 179.517,15.8503 180.5,14.5C 186.567,13.8153 192.734,13.1486 199,12.5C 201.882,13.5437 204.882,14.2104 208,14.5C 218.525,14.0234 229.025,14.0234 239.5,14.5 Z"/></g>
<g><path style="opacity:1" fill="#ce5959" d="M 145.5,13.5 C 154.21,14.0176 162.876,14.1843 171.5,14C 173.333,14.5 174.5,15.6667 175,17.5C 176.174,15.3291 178.007,14.3291 180.5,14.5C 179.517,15.8503 178.184,16.8503 176.5,17.5C 177.668,19.2174 179.335,19.8841 181.5,19.5C 180.699,21.0418 180.366,22.7085 180.5,24.5C 178.694,23.9759 177.028,23.3092 175.5,22.5C 176.734,20.9516 176.734,20.2849 175.5,20.5C 174.778,20.0825 174.278,19.4158 174,18.5C 172.989,19.3366 171.822,19.67 170.5,19.5C 170.5,21.5 170.5,23.5 170.5,25.5C 170.5,37.5 170.5,49.5 170.5,61.5C 170.826,69.6841 170.492,77.6841 169.5,85.5C 169.667,63.8308 169.5,42.1641 169,20.5C 168.5,20 168,19.5 167.5,19C 160.833,18.3333 154.167,18.3333 147.5,19C 148.252,19.6708 148.586,20.5041 148.5,21.5C 146.29,20.5449 145.957,19.0449 147.5,17C 150.167,16.6667 152.833,16.3333 155.5,16C 152.166,14.9156 148.832,14.0823 145.5,13.5 Z"/></g>
<g><path style="opacity:1" fill="#cb5b5b" d="M 251.5,14.5 C 251.167,14.5 250.833,14.5 250.5,14.5C 248.25,14.1814 246.25,14.6814 244.5,16C 246.676,16.1629 248.509,16.9963 250,18.5C 250.5,25.8258 250.666,33.1591 250.5,40.5C 250.5,47.8333 250.5,55.1667 250.5,62.5C 250.5,70.1667 250.5,77.8333 250.5,85.5C 250.167,85.5 249.833,85.5 249.5,85.5C 249.667,63.8308 249.5,42.1641 249,20.5C 246.174,18.6602 243.007,17.9935 239.5,18.5C 239.5,17.1667 239.5,15.8333 239.5,14.5C 243.658,13.4608 247.658,13.4608 251.5,14.5 Z"/></g>
<g><path style="opacity:1" fill="#c95553" d="M 82.5,14.5 C 82.3893,15.1174 82.056,15.6174 81.5,16C 84.0512,16.0023 86.0512,16.8356 87.5,18.5C 65.4975,18.3334 43.4975,18.5 21.5,19C 20.5062,41.0914 20.1729,63.2581 20.5,85.5C 19.8333,85.1667 19.1667,84.8333 18.5,84.5C 18.6666,63.8306 18.5,43.164 18,22.5C 16.5229,43.4084 16.0229,64.4084 16.5,85.5C 16.5,86.5 16.5,87.5 16.5,88.5C 15.7171,86.6568 15.0505,84.6568 14.5,82.5C 15.8219,73.97 15.8219,65.47 14.5,57C 15.3222,45.576 15.8222,34.076 16,22.5C 17.8524,20.7703 17.6857,19.6036 15.5,19C 18.5587,18.9423 20.892,17.609 22.5,15C 31.1261,12.8709 39.6261,12.7042 48,14.5C 59.4656,13.7668 70.9656,13.7668 82.5,14.5 Z"/></g>
<g><path style="opacity:1" fill="#d95656" d="M 83.5,14.5 C 85.9664,13.3659 88.633,13.1993 91.5,14C 93.3333,14.5 94.5,15.6667 95,17.5C 96.1739,15.3291 98.0072,14.3291 100.5,14.5C 108.196,14.1692 115.862,14.5025 123.5,15.5C 122.975,16.1924 122.308,16.6924 121.5,17C 114.425,16.8667 107.758,17.7001 101.5,19.5C 100.659,21.3792 100.325,23.3792 100.5,25.5C 100.167,25.5 99.8333,25.5 99.5,25.5C 98.6935,24.2719 97.6935,23.2719 96.5,22.5C 96.7535,20.5992 96.4202,19.9326 95.5,20.5C 95.1667,20.5 94.8333,20.5 94.5,20.5C 93.286,18.8514 91.9527,17.1848 90.5,15.5C 88.2573,14.5258 85.924,14.1924 83.5,14.5 Z"/></g>
<g><path style="opacity:1" fill="#c95958" d="M 139.5,14.5 C 137.011,14.2978 134.677,14.7978 132.5,16C 135.522,16.0984 138.189,16.9318 140.5,18.5C 127.421,18.1863 114.421,18.5197 101.5,19.5C 107.758,17.7001 114.425,16.8667 121.5,17C 122.308,16.6924 122.975,16.1924 123.5,15.5C 115.862,14.5025 108.196,14.1692 100.5,14.5C 106.567,13.8153 112.734,13.1486 119,12.5C 121.882,13.5437 124.882,14.2104 128,14.5C 131.999,13.4172 135.832,13.4172 139.5,14.5 Z"/></g>
<g><path style="opacity:1" fill="#d65554" d="M 334.5,19.5 C 332.92,15.2129 329.92,13.8796 325.5,15.5C 326.624,16.8592 327.958,17.8592 329.5,18.5C 328.833,18.5 328.167,18.5 327.5,18.5C 326.5,18.5 325.5,18.5 324.5,18.5C 314.172,17.8335 303.672,17.5002 293,17.5C 282.145,17.5013 271.645,18.1679 261.5,19.5C 260.167,19.5 258.833,19.5 257.5,19.5C 257.561,16.9505 258.894,15.4505 261.5,15C 269.159,14.5003 276.826,14.3336 284.5,14.5C 298.819,14.0254 313.152,13.6921 327.5,13.5C 332.199,12.9882 334.532,14.9882 334.5,19.5 Z"/></g>
<g><path style="opacity:0.341" fill="#b95d5d" d="M 230.5,18.5 C 214.089,18.1822 197.756,18.5155 181.5,19.5C 189.305,18.1688 197.472,17.5021 206,17.5C 214.34,17.5003 222.507,17.8336 230.5,18.5 Z"/></g>
<g><path style="opacity:0.333" fill="#b25858" d="M 324.5,18.5 C 303.424,18.1787 282.424,18.512 261.5,19.5C 271.645,18.1679 282.145,17.5013 293,17.5C 303.672,17.5002 314.172,17.8335 324.5,18.5 Z"/></g>
<g><path style="opacity:1" fill="#e15453" d="M 82.5,14.5 C 82.8333,14.5 83.1667,14.5 83.5,14.5C 85.924,14.1924 88.2573,14.5258 90.5,15.5C 91.9527,17.1848 93.286,18.8514 94.5,20.5C 94.5172,22.5648 94.8505,24.5648 95.5,26.5C 94.1667,26.8333 94.1667,27.1667 95.5,27.5C 94.4935,33.9704 94.4935,40.6371 95.5,47.5C 94.8333,47.5 94.5,47.8333 94.5,48.5C 93.9423,49.7899 92.9423,50.6232 91.5,51C 92.1136,52.13 92.1136,53.4634 91.5,55C 91.7013,58.286 92.5347,58.786 94,56.5C 94.5133,57.5266 95.0133,58.5266 95.5,59.5C 94.5269,61.9479 94.1936,64.6146 94.5,67.5C 94.6043,69.9728 95.6043,70.6394 97.5,69.5C 98.211,74.8527 98.8776,80.1861 99.5,85.5C 98.6798,87.1112 97.3464,87.7778 95.5,87.5C 95.5654,87.0618 95.3988,86.7284 95,86.5C 93.2827,91.6586 89.6161,93.9919 84,93.5C 82.8615,93.0109 81.6948,92.6775 80.5,92.5C 76.6643,91.6223 72.6643,90.9557 68.5,90.5C 69.1667,89.8333 69.8333,89.1667 70.5,88.5C 77.1667,88.5 83.8333,88.5 90.5,88.5C 90.8308,65.9938 90.4974,43.6604 89.5,21.5C 88.8333,20.5 88.1667,19.5 87.5,18.5C 86.0512,16.8356 84.0512,16.0023 81.5,16C 82.056,15.6174 82.3893,15.1174 82.5,14.5 Z"/></g>
<g><path style="opacity:1" fill="#df5757" d="M 145.5,13.5 C 148.832,14.0823 152.166,14.9156 155.5,16C 152.833,16.3333 150.167,16.6667 147.5,17C 145.957,19.0449 146.29,20.5449 148.5,21.5C 151.236,23.8579 152.07,26.8579 151,30.5C 149.089,33.5276 146.589,34.1943 143.5,32.5C 144.987,29.788 144.321,27.6213 141.5,26C 138.937,24.9207 136.271,24.4207 133.5,24.5C 135.833,22.5 138.167,20.5 140.5,18.5C 138.189,16.9318 135.522,16.0984 132.5,16C 134.677,14.7978 137.011,14.2978 139.5,14.5C 141.621,14.6747 143.621,14.3414 145.5,13.5 Z"/></g>
<g><path style="opacity:1" fill="#c75859" d="M 74.5,26.5 C 66.1122,26.7729 57.7788,26.4396 49.5,25.5C 43.1903,26.1904 36.857,26.5237 30.5,26.5C 30.5,27.5 30.5,28.5 30.5,29.5C 29.5655,28.4324 29.2322,27.099 29.5,25.5C 43.0887,23.6912 56.7553,23.5246 70.5,25C 72.0581,25.21 73.3915,25.71 74.5,26.5 Z"/></g>
<g><path style="opacity:1" fill="#ca5957" d="M 284.5,14.5 C 276.826,14.3336 269.159,14.5003 261.5,15C 258.894,15.4505 257.561,16.9505 257.5,19.5C 258.833,19.5 260.167,19.5 261.5,19.5C 260.512,40.7579 260.178,62.0912 260.5,83.5C 258.837,63.6875 257.837,43.6875 257.5,23.5C 256.508,23.6716 255.842,23.3382 255.5,22.5C 256.734,20.9516 256.734,20.2849 255.5,20.5C 254.778,20.0825 254.278,19.4158 254,18.5C 253.586,18.9574 253.086,19.2907 252.5,19.5C 251.438,17.9783 250.771,16.3117 250.5,14.5C 250.833,14.5 251.167,14.5 251.5,14.5C 253.411,14.5743 254.578,15.5743 255,17.5C 256.236,15.4616 258.069,14.2949 260.5,14C 266.748,13.8117 272.915,13.3117 279,12.5C 280.948,13.1094 282.782,13.776 284.5,14.5 Z"/></g>
<g><path style="opacity:1" fill="#e15453" d="M 49.5,25.5 C 57.7788,26.4396 66.1122,26.7729 74.5,26.5C 75.287,28.1042 76.6203,28.7709 78.5,28.5C 78.5549,31.2092 79.2216,33.2092 80.5,34.5C 78.1667,34.5 75.8333,34.5 73.5,34.5C 68.8969,33.6167 64.2303,33.2834 59.5,33.5C 57.2362,32.7814 54.9029,32.448 52.5,32.5C 51.2366,30.3036 50.2366,27.9703 49.5,25.5 Z"/></g>
<g><path style="opacity:1" fill="#df5353" d="M 250.5,14.5 C 250.771,16.3117 251.438,17.9783 252.5,19.5C 253.086,19.2907 253.586,18.9574 254,18.5C 254.278,19.4158 254.778,20.0825 255.5,20.5C 255.5,21.1667 255.5,21.8333 255.5,22.5C 255.842,23.3382 256.508,23.6716 257.5,23.5C 256.833,25.5 256.167,27.5 255.5,29.5C 254.833,29.5 254.5,29.8333 254.5,30.5C 253.226,31.1894 253.226,32.0228 254.5,33C 251.833,33.6667 251.833,34.3333 254.5,35C 253.594,36.6995 253.261,38.5328 253.5,40.5C 252.5,40.5 251.5,40.5 250.5,40.5C 250.666,33.1591 250.5,25.8258 250,18.5C 248.509,16.9963 246.676,16.1629 244.5,16C 246.25,14.6814 248.25,14.1814 250.5,14.5 Z"/></g>
<g><path style="opacity:1" fill="#e25454" d="M 49.5,25.5 C 50.2366,27.9703 51.2366,30.3036 52.5,32.5C 49.2186,32.4203 46.2186,33.087 43.5,34.5C 40.2214,35.4922 36.8881,35.6588 33.5,35C 31.84,33.5123 30.84,31.679 30.5,29.5C 30.5,28.5 30.5,27.5 30.5,26.5C 36.857,26.5237 43.1903,26.1904 49.5,25.5 Z"/></g>
<g><path style="opacity:1" fill="#de5958" d="M 133.5,24.5 C 136.271,24.4207 138.937,24.9207 141.5,26C 144.321,27.6213 144.987,29.788 143.5,32.5C 138.934,32.7293 134.267,32.8959 129.5,33C 129.034,34.2988 129.034,35.7988 129.5,37.5C 129.5,38.8333 129.5,40.1667 129.5,41.5C 128.71,40.3915 128.21,39.0581 128,37.5C 126.601,38.2266 125.101,38.7266 123.5,39C 125.539,41.3852 125.539,43.5518 123.5,45.5C 122.833,45.1667 122.167,44.8333 121.5,44.5C 120.526,46.7427 120.192,49.076 120.5,51.5C 121.675,51.281 122.675,51.6143 123.5,52.5C 122.754,53.7362 122.421,55.0695 122.5,56.5C 121.883,56.3893 121.383,56.056 121,55.5C 120.04,52.3668 119.207,49.2001 118.5,46C 119.359,43.9468 120.692,42.2801 122.5,41C 119.417,37.2296 119.251,33.063 122,28.5C 125.75,27.7472 129.584,26.4138 133.5,24.5 Z"/></g>
<g><path style="opacity:1" fill="#e35353" d="M 220.5,61.5 C 220.5,65.1667 220.5,68.8333 220.5,72.5C 218.824,73.1834 218.157,74.5168 218.5,76.5C 216.088,76.3305 213.921,76.9972 212,78.5C 209.686,77.5922 207.852,76.0922 206.5,74C 205.552,73.5172 204.552,73.3505 203.5,73.5C 203.5,72.5 203.5,71.5 203.5,70.5C 204.5,70.5 205.5,70.5 206.5,70.5C 207.117,70.3893 207.617,70.056 208,69.5C 208.629,65.1294 208.463,60.796 207.5,56.5C 208.494,47.0144 208.827,37.3478 208.5,27.5C 212.503,26.9968 215.669,28.3301 218,31.5C 217.854,41.8835 218.687,51.8835 220.5,61.5 Z"/></g>
<g><path style="opacity:1" fill="#cb5f61" d="M 74.5,26.5 C 80.2594,27.0224 82.2594,30.0224 80.5,35.5C 77.7504,37.0785 75.4171,36.7451 73.5,34.5C 75.8333,34.5 78.1667,34.5 80.5,34.5C 79.2216,33.2092 78.5549,31.2092 78.5,28.5C 76.6203,28.7709 75.287,28.1042 74.5,26.5 Z"/></g>
<g><path style="opacity:1" fill="#d25a59" d="M 278.5,36.5 C 277.945,34.2712 276.611,32.6046 274.5,31.5C 274.887,28.7939 275.887,26.4605 277.5,24.5C 283.839,26.6514 286.672,30.9848 286,37.5C 285.275,38.0585 284.442,38.3918 283.5,38.5C 281.823,37.8131 280.156,37.1465 278.5,36.5 Z"/></g>
<g><path style="opacity:1" fill="#e15454" d="M 307.5,39.5 C 305.192,39.9138 302.858,40.2471 300.5,40.5C 298.117,40.639 296.117,39.9723 294.5,38.5C 294.5,36.8333 294.5,35.1667 294.5,33.5C 298.819,32.7512 303.152,32.5845 307.5,33C 311.051,34.6771 312.384,37.5104 311.5,41.5C 309.801,41.4729 308.467,40.8062 307.5,39.5 Z"/></g>
<g><path style="opacity:0.948" fill="#e15251" d="M 175.5,20.5 C 175.5,21.1667 175.5,21.8333 175.5,22.5C 177.028,23.3092 178.694,23.9759 180.5,24.5C 180.5,25.8333 180.5,27.1667 180.5,28.5C 179.883,28.6107 179.383,28.944 179,29.5C 178.667,38.8333 178.333,48.1667 178,57.5C 177.617,56.944 177.117,56.6107 176.5,56.5C 176.713,53.5491 176.046,50.8825 174.5,48.5C 175.167,48.5 175.5,48.1667 175.5,47.5C 174.272,45.9902 174.272,44.4902 175.5,43C 173.842,42.2747 173.342,41.108 174,39.5C 174.556,41.5951 175.056,41.7618 175.5,40C 174.368,35.5158 174.368,31.3492 175.5,27.5C 175.5,27.1667 175.5,26.8333 175.5,26.5C 174.081,25.5489 172.415,25.2155 170.5,25.5C 170.5,23.5 170.5,21.5 170.5,19.5C 171.822,19.67 172.989,19.3366 174,18.5C 174.278,19.4158 174.778,20.0825 175.5,20.5 Z"/></g>
<g><path style="opacity:1" fill="#cf5a5a" d="M 220.5,61.5 C 218.687,51.8835 217.854,41.8835 218,31.5C 215.669,28.3301 212.503,26.9968 208.5,27.5C 208.827,37.3478 208.494,47.0144 207.5,56.5C 207.763,47.6362 207.429,38.8028 206.5,30C 206.567,25.1192 208.9,23.1192 213.5,24C 216.677,27.3783 219.344,31.0449 221.5,35C 220.571,43.8028 220.237,52.6362 220.5,61.5 Z"/></g>
<g><path style="opacity:0.92" fill="#e76562" d="M 99.5,25.5 C 99.8333,25.5 100.167,25.5 100.5,25.5C 101.375,36.1861 101.375,46.8527 100.5,57.5C 99.8333,57.8333 99.1667,58.1667 98.5,58.5C 96.1447,47.2081 95.6447,35.8748 97,24.5C 98.0437,25.6226 98.7104,26.9559 99,28.5C 99.4828,27.552 99.6495,26.552 99.5,25.5 Z"/></g>
<g><path style="opacity:1" fill="#c85858" d="M 52.5,32.5 C 54.9029,32.448 57.2362,32.7814 59.5,33.5C 63.0427,35.1083 66.0427,37.4416 68.5,40.5C 66.9557,40.2969 65.6223,39.6302 64.5,38.5C 63.1973,39.7178 62.1973,39.3845 61.5,37.5C 60.5078,41.7828 60.1744,46.1161 60.5,50.5C 59.7911,45.9011 58.7911,41.2344 57.5,36.5C 57.7093,35.914 58.0426,35.414 58.5,35C 56.6341,34.0153 54.6341,33.5153 52.5,33.5C 49.5078,33.9657 46.5078,34.2991 43.5,34.5C 46.2186,33.087 49.2186,32.4203 52.5,32.5 Z"/></g>
<g><path style="opacity:1" fill="#dc5555" d="M 334.5,19.5 C 334.355,38.4123 334.688,57.5789 335.5,77C 335.333,80.1667 335.167,83.3333 335,86.5C 334.8,88.3197 333.966,89.653 332.5,90.5C 329.316,88.5864 325.649,87.9197 321.5,88.5C 321.5,88.1667 321.5,87.8333 321.5,87.5C 324.513,87.8928 327.18,87.2261 329.5,85.5C 330.826,63.2644 330.826,40.9311 329.5,18.5C 327.958,17.8592 326.624,16.8592 325.5,15.5C 329.92,13.8796 332.92,15.2129 334.5,19.5 Z"/></g>
<g><path style="opacity:1" fill="#ca5a5b" d="M 158.5,44.5 C 152.02,43.3737 145.686,42.0404 139.5,40.5C 138.21,39.9423 137.377,38.9423 137,37.5C 136.867,40.4042 135.7,42.7376 133.5,44.5C 131.027,44.9118 129.694,43.9118 129.5,41.5C 129.5,40.1667 129.5,38.8333 129.5,37.5C 130.451,38.9187 130.784,40.5853 130.5,42.5C 131.822,42.67 132.989,42.3366 134,41.5C 134.996,34.0651 137.496,33.5651 141.5,40C 147.78,39.6754 153.447,41.1754 158.5,44.5 Z"/></g>
<g><path style="opacity:0.999" fill="#e35555" d="M 170.5,25.5 C 172.415,25.2155 174.081,25.5489 175.5,26.5C 174.167,26.8333 174.167,27.1667 175.5,27.5C 174.368,31.3492 174.368,35.5158 175.5,40C 175.056,41.7618 174.556,41.5951 174,39.5C 173.342,41.108 173.842,42.2747 175.5,43C 174.272,44.4902 174.272,45.9902 175.5,47.5C 174.833,47.5 174.5,47.8333 174.5,48.5C 176.046,50.8825 176.713,53.5491 176.5,56.5C 174.519,57.1054 174.185,58.1054 175.5,59.5C 175.167,59.5 174.833,59.5 174.5,59.5C 172.938,59.7329 171.605,60.3995 170.5,61.5C 170.5,49.5 170.5,37.5 170.5,25.5 Z"/></g>
<g><path style="opacity:1" fill="#db5757" d="M 52.5,44.5 C 50.8656,43.7934 49.5323,42.6268 48.5,41C 46.1667,40.3333 43.8333,40.3333 41.5,41C 42.7577,42.7409 43.7577,44.5742 44.5,46.5C 42.9705,45.9332 41.4705,45.2666 40,44.5C 40.2674,48.441 40.4341,52.441 40.5,56.5C 39.5269,58.9479 39.1936,61.6146 39.5,64.5C 43.9315,64.7693 48.2648,64.436 52.5,63.5C 50.6028,64.8048 48.2695,65.4714 45.5,65.5C 41.7636,65.4716 38.0969,64.9716 34.5,64C 32.5559,62.278 31.5559,60.1113 31.5,57.5C 32.3336,51.7857 32.6669,46.119 32.5,40.5C 36.982,40.1456 41.6486,39.4789 46.5,38.5C 49.5141,39.5141 51.5141,41.5141 52.5,44.5 Z"/></g>
<g><path style="opacity:1" fill="#e05756" d="M 139.5,40.5 C 145.686,42.0404 152.02,43.3737 158.5,44.5C 159.88,44.9623 160.547,45.9623 160.5,47.5C 159.848,49.4049 159.681,51.4049 160,53.5C 155.996,56.2973 151.496,57.7973 146.5,58C 145.833,58.6667 145.167,59.3333 144.5,60C 145.46,63.73 145.793,67.5633 145.5,71.5C 144.521,68.3752 144.187,65.0419 144.5,61.5C 142.4,61.4772 140.567,62.1439 139,63.5C 137.832,62.4911 136.665,61.4911 135.5,60.5C 134.818,61.2427 134.151,61.9094 133.5,62.5C 133.631,61.7611 133.464,61.0944 133,60.5C 130.701,63.1057 128.534,63.1057 126.5,60.5C 129.596,61.0934 131.929,60.0934 133.5,57.5C 134.689,56.5713 136.022,56.238 137.5,56.5C 137.5,55.5 137.5,54.5 137.5,53.5C 136.167,53.5 134.833,53.5 133.5,53.5C 133.5,52.1667 133.5,50.8333 133.5,49.5C 132.325,49.719 131.325,49.3857 130.5,48.5C 132.49,47.5019 134.49,46.5019 136.5,45.5C 138.321,44.2723 139.321,42.6056 139.5,40.5 Z"/></g>
<g><path style="opacity:1" fill="#de5353" d="M 68.5,40.5 C 68.8276,51.0135 68.4942,61.3468 67.5,71.5C 67.8134,68.7531 67.48,66.0865 66.5,63.5C 65.8333,64.5 65.1667,65.5 64.5,66.5C 63.3914,65.4104 62.3914,65.4104 61.5,66.5C 62.0525,68.7273 62.0525,71.0607 61.5,73.5C 60.5,73.5 59.5,73.5 58.5,73.5C 60.2016,65.9514 60.8683,58.2848 60.5,50.5C 60.1744,46.1161 60.5078,41.7828 61.5,37.5C 62.1973,39.3845 63.1973,39.7178 64.5,38.5C 65.6223,39.6302 66.9557,40.2969 68.5,40.5 Z"/></g>
<g><path style="opacity:1" fill="#e25353" d="M 129.5,41.5 C 129.694,43.9118 131.027,44.9118 133.5,44.5C 131.983,45.7349 130.316,45.7349 128.5,44.5C 127.713,45.2421 127.047,46.0754 126.5,47C 126.413,49.1299 126.413,51.2966 126.5,53.5C 127.842,51.9951 129.508,51.3285 131.5,51.5C 131.5,53.5 131.5,55.5 131.5,57.5C 129.011,57.2407 127.344,58.2407 126.5,60.5C 124.167,60.1667 122.833,58.8333 122.5,56.5C 122.421,55.0695 122.754,53.7362 123.5,52.5C 122.675,51.6143 121.675,51.281 120.5,51.5C 120.192,49.076 120.526,46.7427 121.5,44.5C 122.167,44.8333 122.833,45.1667 123.5,45.5C 125.539,43.5518 125.539,41.3852 123.5,39C 125.101,38.7266 126.601,38.2266 128,37.5C 128.21,39.0581 128.71,40.3915 129.5,41.5 Z"/></g>
<g><path style="opacity:1" fill="#da5758" d="M 295.5,55.5 C 298.977,54.6773 302.644,54.1773 306.5,54C 307.617,52.1079 309.284,51.2746 311.5,51.5C 311.034,49.7988 311.034,48.2988 311.5,47C 309.929,43.6983 308.595,43.865 307.5,47.5C 303.555,48.4909 299.555,48.8242 295.5,48.5C 299.021,47.6288 302.688,46.7955 306.5,46C 307.423,43.9592 307.756,41.7925 307.5,39.5C 308.467,40.8062 309.801,41.4729 311.5,41.5C 312.384,37.5104 311.051,34.6771 307.5,33C 303.152,32.5845 298.819,32.7512 294.5,33.5C 294.5,35.1667 294.5,36.8333 294.5,38.5C 293.883,38.3893 293.383,38.056 293,37.5C 292.505,35.5273 292.338,33.5273 292.5,31.5C 297.03,31.597 301.53,31.2637 306,30.5C 313.341,30.2423 317.175,33.7423 317.5,41C 316.381,44.6913 316.381,48.3579 317.5,52C 317.097,53.4728 316.43,54.8061 315.5,56C 308.859,56.4258 302.192,56.2592 295.5,55.5 Z"/></g>
<g><path style="opacity:1" fill="#e35352" d="M 18.5,84.5 C 18.1583,85.3382 17.4916,85.6716 16.5,85.5C 16.0229,64.4084 16.5229,43.4084 18,22.5C 18.5,43.164 18.6666,63.8306 18.5,84.5 Z"/></g>
<g><path style="opacity:1" fill="#de5453" d="M 52.5,44.5 C 53.8073,50.7343 53.8073,57.0676 52.5,63.5C 48.2648,64.436 43.9315,64.7693 39.5,64.5C 39.1936,61.6146 39.5269,58.9479 40.5,56.5C 41.4959,56.5858 42.3292,56.2524 43,55.5C 44.3633,52.5096 44.8633,49.5096 44.5,46.5C 43.7577,44.5742 42.7577,42.7409 41.5,41C 43.8333,40.3333 46.1667,40.3333 48.5,41C 49.5323,42.6268 50.8656,43.7934 52.5,44.5 Z"/></g>
<g><path style="opacity:1" fill="#e65253" d="M 139.5,40.5 C 139.321,42.6056 138.321,44.2723 136.5,45.5C 134.49,46.5019 132.49,47.5019 130.5,48.5C 131.325,49.3857 132.325,49.719 133.5,49.5C 133.5,50.8333 133.5,52.1667 133.5,53.5C 134.833,53.5 136.167,53.5 137.5,53.5C 137.5,54.5 137.5,55.5 137.5,56.5C 136.022,56.238 134.689,56.5713 133.5,57.5C 131.929,60.0934 129.596,61.0934 126.5,60.5C 127.344,58.2407 129.011,57.2407 131.5,57.5C 131.5,55.5 131.5,53.5 131.5,51.5C 129.508,51.3285 127.842,51.9951 126.5,53.5C 126.413,51.2966 126.413,49.1299 126.5,47C 127.047,46.0754 127.713,45.2421 128.5,44.5C 130.316,45.7349 131.983,45.7349 133.5,44.5C 135.7,42.7376 136.867,40.4042 137,37.5C 137.377,38.9423 138.21,39.9423 139.5,40.5 Z"/></g>
<g><path style="opacity:0.976" fill="#e15352" d="M 257.5,23.5 C 257.837,43.6875 258.837,63.6875 260.5,83.5C 260.5,84.1667 260.5,84.8333 260.5,85.5C 260.557,86.609 260.89,87.609 261.5,88.5C 260.662,88.8417 260.328,89.5084 260.5,90.5C 259.833,90.5 259.167,90.5 258.5,90.5C 256.665,89.8777 255.498,88.5444 255,86.5C 254.601,86.7284 254.435,87.0618 254.5,87.5C 253.292,88.2341 251.959,88.5674 250.5,88.5C 250.5,89.5 250.5,90.5 250.5,91.5C 236.85,90.688 223.183,90.3547 209.5,90.5C 209.5,89.8333 209.5,89.1667 209.5,88.5C 222.833,88.5 236.167,88.5 249.5,88.5C 249.5,87.5 249.5,86.5 249.5,85.5C 249.833,85.5 250.167,85.5 250.5,85.5C 252.199,85.6602 253.866,85.4935 255.5,85C 253.939,84.059 252.605,82.8924 251.5,81.5C 252.531,80.2997 253.365,78.9663 254,77.5C 254.43,83.7911 255.263,83.9578 256.5,78C 254.63,74.46 253.63,70.6266 253.5,66.5C 253.503,63.9746 253.837,61.6413 254.5,59.5C 254.833,70.1667 255.167,70.1667 255.5,59.5C 254.135,56.3253 253.135,52.992 252.5,49.5C 251.833,53.9822 251.166,58.3155 250.5,62.5C 250.5,55.1667 250.5,47.8333 250.5,40.5C 251.5,40.5 252.5,40.5 253.5,40.5C 253.261,38.5328 253.594,36.6995 254.5,35C 251.833,34.3333 251.833,33.6667 254.5,33C 253.226,32.0228 253.226,31.1894 254.5,30.5C 255.167,30.5 255.5,30.1667 255.5,29.5C 256.167,27.5 256.833,25.5 257.5,23.5 Z"/></g>
<g><path style="opacity:1" fill="#e25352" d="M 291.5,44.5 C 292.833,45.8333 294.167,47.1667 295.5,48.5C 299.555,48.8242 303.555,48.4909 307.5,47.5C 308.595,43.865 309.929,43.6983 311.5,47C 311.034,48.2988 311.034,49.7988 311.5,51.5C 309.284,51.2746 307.617,52.1079 306.5,54C 302.644,54.1773 298.977,54.6773 295.5,55.5C 294.527,56.7914 293.527,56.7914 292.5,55.5C 291.808,56.0253 291.308,56.6919 291,57.5C 290.186,52.9796 290.353,48.6463 291.5,44.5 Z"/></g>
<g><path style="opacity:0.998" fill="#dc4e4c" d="M 94.5,20.5 C 94.8333,20.5 95.1667,20.5 95.5,20.5C 95.3284,21.4916 95.6618,22.1583 96.5,22.5C 97.6935,23.2719 98.6935,24.2719 99.5,25.5C 99.6495,26.552 99.4828,27.552 99,28.5C 98.7104,26.9559 98.0437,25.6226 97,24.5C 95.6447,35.8748 96.1447,47.2081 98.5,58.5C 98.8919,61.7216 98.3919,64.7216 97,67.5C 96.7216,66.5842 96.2216,65.9175 95.5,65.5C 95.5,63.5 95.5,61.5 95.5,59.5C 95.0133,58.5266 94.5133,57.5266 94,56.5C 92.5347,58.786 91.7013,58.286 91.5,55C 92.1136,53.4634 92.1136,52.13 91.5,51C 92.9423,50.6232 93.9423,49.7899 94.5,48.5C 95.1667,48.5 95.5,48.1667 95.5,47.5C 94.4935,40.6371 94.4935,33.9704 95.5,27.5C 95.5,27.1667 95.5,26.8333 95.5,26.5C 94.8505,24.5648 94.5172,22.5648 94.5,20.5 Z"/></g>
<g><path style="opacity:1" fill="#df5859" d="M 231.5,47.5 C 239.772,49.7406 243.938,55.0739 244,63.5C 243.363,65.3031 242.197,66.6364 240.5,67.5C 239.033,66.3047 237.533,66.3047 236,67.5C 233.736,67.1463 231.902,66.1463 230.5,64.5C 230.977,63.5224 231.643,62.6891 232.5,62C 228.245,57.2085 227.912,52.3751 231.5,47.5 Z"/></g>
<g><path style="opacity:1" fill="#d85655" d="M 197.5,45.5 C 198.675,45.281 199.675,45.6143 200.5,46.5C 198.144,49.0217 195.977,51.6884 194,54.5C 193.462,57.8122 193.962,60.9788 195.5,64C 195.367,68.8042 193.033,70.4708 188.5,69C 184.878,66.935 182.878,63.7683 182.5,59.5C 184.62,56.1432 185.953,52.4765 186.5,48.5C 188.143,48.4802 189.476,49.1468 190.5,50.5C 193.077,49.0569 195.41,47.3902 197.5,45.5 Z"/></g>
<g><path style="opacity:0.992" fill="#c6615c" d="M 282.5,70.5 C 282.5,67.8333 282.5,65.1667 282.5,62.5C 281.5,62.5 280.5,62.5 279.5,62.5C 281.094,61.017 282.76,59.517 284.5,58C 285.332,57.3123 285.998,57.479 286.5,58.5C 284.533,62.4235 283.199,66.4235 282.5,70.5 Z"/></g>
<g><path style="opacity:1" fill="#e35353" d="M 145.5,71.5 C 145.5,72.1667 145.5,72.8333 145.5,73.5C 144.949,76.8067 144.616,80.1401 144.5,83.5C 142.821,83.2852 141.821,83.9519 141.5,85.5C 139.958,84.6993 138.292,84.366 136.5,84.5C 136.5,83.5 136.5,82.5 136.5,81.5C 136.666,77.1539 136.499,72.8206 136,68.5C 135.722,67.5842 135.222,66.9175 134.5,66.5C 134.567,65.0413 134.234,63.7079 133.5,62.5C 134.151,61.9094 134.818,61.2427 135.5,60.5C 136.665,61.4911 137.832,62.4911 139,63.5C 140.567,62.1439 142.4,61.4772 144.5,61.5C 144.187,65.0419 144.521,68.3752 145.5,71.5 Z"/></g>
<g><path style="opacity:1" fill="#e45455" d="M 255.5,59.5 C 255.167,59.5 254.833,59.5 254.5,59.5C 253.837,61.6413 253.503,63.9746 253.5,66.5C 253.63,70.6266 254.63,74.46 256.5,78C 255.263,83.9578 254.43,83.7911 254,77.5C 253.365,78.9663 252.531,80.2997 251.5,81.5C 252.605,82.8924 253.939,84.059 255.5,85C 253.866,85.4935 252.199,85.6602 250.5,85.5C 250.5,77.8333 250.5,70.1667 250.5,62.5C 251.166,58.3155 251.833,53.9822 252.5,49.5C 253.135,52.992 254.135,56.3253 255.5,59.5 Z"/></g>
<g><path style="opacity:0.475" fill="#c76060" d="M 327.5,18.5 C 328.167,18.5 328.833,18.5 329.5,18.5C 330.826,40.9311 330.826,63.2644 329.5,85.5C 329.667,63.8308 329.5,42.1641 329,20.5C 328.283,19.9558 327.783,19.2891 327.5,18.5 Z"/></g>
<g><path style="opacity:1" fill="#d75757" d="M 297.5,74.5 C 297.833,74.5 298.167,74.5 298.5,74.5C 304.653,77.2238 310.653,77.0571 316.5,74C 315.833,73.6667 315.167,73.3333 314.5,73C 317.167,71.0095 319.5,68.6761 321.5,66C 317.852,65.9379 314.185,66.1046 310.5,66.5C 312.218,65.776 314.052,65.1094 316,64.5C 317.016,61.4322 318.183,58.4322 319.5,55.5C 321.225,59.8288 323.058,64.1621 325,68.5C 325.495,70.4727 325.662,72.4727 325.5,74.5C 319.824,76.3768 313.99,77.7101 308,78.5C 305.453,78.2382 302.953,77.7382 300.5,77C 299.058,76.6232 298.058,75.7899 297.5,74.5 Z"/></g>
<g><path style="opacity:1" fill="#da5554" d="M 180.5,28.5 C 180.5,47.5 180.5,66.5 180.5,85.5C 180.414,86.4959 180.748,87.3292 181.5,88C 190.827,88.4998 200.161,88.6665 209.5,88.5C 209.5,89.1667 209.5,89.8333 209.5,90.5C 199.167,90.5 188.833,90.5 178.5,90.5C 176.665,89.8777 175.498,88.5444 175,86.5C 174.8,88.3197 173.966,89.653 172.5,90.5C 169.319,90.7423 166.319,90.7423 163.5,90.5C 164.912,89.1936 166.579,88.3603 168.5,88C 169.252,87.3292 169.586,86.4959 169.5,85.5C 170.492,77.6841 170.826,69.6841 170.5,61.5C 171.605,60.3995 172.938,59.7329 174.5,59.5C 174.833,70.1667 175.167,70.1667 175.5,59.5C 174.185,58.1054 174.519,57.1054 176.5,56.5C 177.117,56.6107 177.617,56.944 178,57.5C 178.333,48.1667 178.667,38.8333 179,29.5C 179.383,28.944 179.883,28.6107 180.5,28.5 Z"/></g>
<g><path style="opacity:1" fill="#da5657" d="M 278.5,36.5 C 280.378,38.9629 281.378,41.7962 281.5,45C 280.14,50.4236 279.14,55.9236 278.5,61.5C 278.624,62.1067 278.957,62.44 279.5,62.5C 280.5,62.5 281.5,62.5 282.5,62.5C 282.5,65.1667 282.5,67.8333 282.5,70.5C 282.14,74.3841 280.807,77.8841 278.5,81C 272.794,81.6381 269.794,78.9715 269.5,73C 271.081,68.6904 272.747,64.5238 274.5,60.5C 274.663,62.8568 274.497,65.1902 274,67.5C 270.715,71.7644 270.881,75.9311 274.5,80C 276.607,80.8542 277.941,80.1875 278.5,78C 277.756,75.8449 276.756,73.8449 275.5,72C 277.729,65.3648 278.062,58.5314 276.5,51.5C 275.735,52.6119 274.735,53.2786 273.5,53.5C 273.813,50.7531 273.48,48.0865 272.5,45.5C 267.384,43.5998 265.05,39.9331 265.5,34.5C 269.962,34.423 274.295,35.0897 278.5,36.5 Z"/></g>
<g><path style="opacity:1" fill="#d85655" d="M 291.5,44.5 C 290.353,48.6463 290.186,52.9796 291,57.5C 291.308,56.6919 291.808,56.0253 292.5,55.5C 293.527,56.7914 294.527,56.7914 295.5,55.5C 295.784,58.7766 295.451,61.9433 294.5,65C 296.081,65.7065 297.581,66.5399 299,67.5C 302.394,66.5442 305.894,66.2108 309.5,66.5C 306.851,68.1094 303.851,68.9428 300.5,69C 303.234,69.7183 303.9,71.2183 302.5,73.5C 301.392,70.4968 299.725,69.9968 297.5,72C 298.252,72.6708 298.586,73.5041 298.5,74.5C 298.167,74.5 297.833,74.5 297.5,74.5C 294.944,73.4566 292.777,71.7899 291,69.5C 290.039,63.1646 289.206,56.8313 288.5,50.5C 289.06,48.1463 289.727,45.813 290.5,43.5C 291.107,43.6236 291.44,43.9569 291.5,44.5 Z"/></g>
<g><path style="opacity:1" fill="#e35353" d="M 298.5,74.5 C 298.586,73.5041 298.252,72.6708 297.5,72C 299.725,69.9968 301.392,70.4968 302.5,73.5C 303.9,71.2183 303.234,69.7183 300.5,69C 303.851,68.9428 306.851,68.1094 309.5,66.5C 309.833,66.5 310.167,66.5 310.5,66.5C 314.185,66.1046 317.852,65.9379 321.5,66C 319.5,68.6761 317.167,71.0095 314.5,73C 315.167,73.3333 315.833,73.6667 316.5,74C 310.653,77.0571 304.653,77.2238 298.5,74.5 Z"/></g>
<g><path style="opacity:1" fill="#da5656" d="M 120.5,76.5 C 118.744,77.5521 118.077,79.2188 118.5,81.5C 115.277,79.9635 112.277,77.9635 109.5,75.5C 108.369,77.0745 108.202,78.7412 109,80.5C 110.022,82.6642 111.189,84.6642 112.5,86.5C 110.983,86.4894 109.816,85.8228 109,84.5C 105.375,79.0399 104.875,73.3732 107.5,67.5C 108.365,66.4173 109.365,66.2506 110.5,67C 112.35,69.0176 114.35,70.8509 116.5,72.5C 126.438,65.4098 127.772,66.7431 120.5,76.5 Z"/></g>
<g><path style="opacity:1" fill="#d05c5d" d="M 206.5,70.5 C 205.5,70.5 204.5,70.5 203.5,70.5C 203.5,71.5 203.5,72.5 203.5,73.5C 204.552,73.3505 205.552,73.5172 206.5,74C 207.852,76.0922 209.686,77.5922 212,78.5C 213.921,76.9972 216.088,76.3305 218.5,76.5C 218.157,74.5168 218.824,73.1834 220.5,72.5C 220.308,77.0258 217.975,79.6924 213.5,80.5C 208.703,78.6008 204.37,75.9342 200.5,72.5C 199.05,71.1502 198.383,69.4835 198.5,67.5C 201.542,67.7329 204.208,68.7329 206.5,70.5 Z"/></g>
<g><path style="opacity:1" fill="#e45352" d="M 274.5,60.5 C 274.552,58.0971 274.219,55.7638 273.5,53.5C 274.735,53.2786 275.735,52.6119 276.5,51.5C 278.062,58.5314 277.729,65.3648 275.5,72C 276.756,73.8449 277.756,75.8449 278.5,78C 277.941,80.1875 276.607,80.8542 274.5,80C 270.881,75.9311 270.715,71.7644 274,67.5C 274.497,65.1902 274.663,62.8568 274.5,60.5 Z"/></g>
<g><path style="opacity:1" fill="#d15a5a" d="M 158.5,66.5 C 157.542,66.0472 156.708,65.3805 156,64.5C 155.667,66.1667 155.333,67.8333 155,69.5C 152.863,70.4786 151.029,71.8119 149.5,73.5C 151.939,73.419 154.272,73.919 156.5,75C 155.422,75.6739 154.755,76.6739 154.5,78C 154.773,79.5328 155.106,81.0328 155.5,82.5C 153.553,80.7838 152.219,78.6171 151.5,76C 149.899,75.7266 148.399,75.2266 147,74.5C 146.485,78.5773 145.651,82.5773 144.5,86.5C 151.134,87.4967 157.8,87.83 164.5,87.5C 163.791,88.404 162.791,88.7373 161.5,88.5C 155.491,88.6662 149.491,88.4995 143.5,88C 142.934,87.0053 142.267,86.172 141.5,85.5C 141.821,83.9519 142.821,83.2852 144.5,83.5C 144.616,80.1401 144.949,76.8067 145.5,73.5C 147.735,72.7721 149.568,71.4388 151,69.5C 151.21,66.7658 152.044,64.2658 153.5,62C 156.186,62.1772 157.852,63.6772 158.5,66.5 Z"/></g>
<g><path style="opacity:1" fill="#e45352" d="M 67.5,71.5 C 67.5,72.5 67.5,73.5 67.5,74.5C 65.146,74.838 62.8127,75.338 60.5,76C 62.8633,76.5885 63.8633,78.0885 63.5,80.5C 58.4416,80.3021 54.1083,78.4688 50.5,75C 51.0253,74.3076 51.6919,73.8076 52.5,73.5C 54.6431,74.7537 56.6431,74.7537 58.5,73.5C 59.5,73.5 60.5,73.5 61.5,73.5C 62.0525,71.0607 62.0525,68.7273 61.5,66.5C 62.3914,65.4104 63.3914,65.4104 64.5,66.5C 65.1667,65.5 65.8333,64.5 66.5,63.5C 67.48,66.0865 67.8134,68.7531 67.5,71.5 Z"/></g>
<g><path style="opacity:1" fill="#d46463" d="M 68.5,40.5 C 70.1831,49.962 70.6831,59.6287 70,69.5C 69.1484,74.4153 66.9818,78.582 63.5,82C 53.4565,81.6419 45.7898,77.1419 40.5,68.5C 41.723,67.3861 43.0563,67.2195 44.5,68C 48.9258,70.5292 53.5924,72.3625 58.5,73.5C 56.6431,74.7537 54.6431,74.7537 52.5,73.5C 51.6919,73.8076 51.0253,74.3076 50.5,75C 54.1083,78.4688 58.4416,80.3021 63.5,80.5C 63.8633,78.0885 62.8633,76.5885 60.5,76C 62.8127,75.338 65.146,74.838 67.5,74.5C 67.5,73.5 67.5,72.5 67.5,71.5C 68.4942,61.3468 68.8276,51.0135 68.5,40.5 Z"/></g>
<g><path style="opacity:1" fill="#ca5d5c" d="M 134.5,66.5 C 135.222,66.9175 135.722,67.5842 136,68.5C 136.499,72.8206 136.666,77.1539 136.5,81.5C 135.9,82.9002 134.9,83.9002 133.5,84.5C 133.936,82.2537 134.603,80.0871 135.5,78C 134.54,74.27 134.207,70.4367 134.5,66.5 Z"/></g>
<g><path style="opacity:1" fill="#dd5656" d="M 158.5,66.5 C 162.107,70.0417 164.441,74.3751 165.5,79.5C 164.132,84.0777 161.132,85.5777 156.5,84C 155.944,83.6174 155.611,83.1174 155.5,82.5C 155.106,81.0328 154.773,79.5328 154.5,78C 154.755,76.6739 155.422,75.6739 156.5,75C 154.272,73.919 151.939,73.419 149.5,73.5C 151.029,71.8119 152.863,70.4786 155,69.5C 155.333,67.8333 155.667,66.1667 156,64.5C 156.708,65.3805 157.542,66.0472 158.5,66.5 Z"/></g>
<g><path style="opacity:1" fill="#e25352" d="M 136.5,81.5 C 136.5,82.5 136.5,83.5 136.5,84.5C 138.292,84.366 139.958,84.6993 141.5,85.5C 142.267,86.172 142.934,87.0053 143.5,88C 149.491,88.4995 155.491,88.6662 161.5,88.5C 159.164,90.2792 156.33,91.2792 153,91.5C 143.875,90.5401 134.708,90.2068 125.5,90.5C 125.5,89.1667 125.5,87.8333 125.5,86.5C 128.553,86.8893 131.22,86.2227 133.5,84.5C 134.9,83.9002 135.9,82.9002 136.5,81.5 Z"/></g>
<g><path style="opacity:0.399" fill="#c85b5c" d="M 89.5,21.5 C 90.4974,43.6604 90.8308,65.9938 90.5,88.5C 83.8333,88.5 77.1667,88.5 70.5,88.5C 54.1633,88.6666 37.8299,88.4999 21.5,88C 20.7476,87.3292 20.4142,86.4959 20.5,85.5C 21.2891,85.7828 21.9558,86.2828 22.5,87C 44.1667,87.6667 65.8333,87.6667 87.5,87C 88,86.5 88.5,86 89,85.5C 89.5,64.1693 89.6666,42.8359 89.5,21.5 Z"/></g>
<g><path style="opacity:0.404" fill="#c95c5d" d="M 180.5,85.5 C 181.289,85.7828 181.956,86.2828 182.5,87C 204.167,87.6667 225.833,87.6667 247.5,87C 248.044,86.2828 248.711,85.7828 249.5,85.5C 249.5,86.5 249.5,87.5 249.5,88.5C 236.167,88.5 222.833,88.5 209.5,88.5C 200.161,88.6665 190.827,88.4998 181.5,88C 180.748,87.3292 180.414,86.4959 180.5,85.5 Z"/></g>
<g><path style="opacity:0.42" fill="#c85f5e" d="M 260.5,85.5 C 261.289,85.7828 261.956,86.2828 262.5,87C 282.164,87.5 301.831,87.6666 321.5,87.5C 321.5,87.8333 321.5,88.1667 321.5,88.5C 301.5,88.5 281.5,88.5 261.5,88.5C 260.89,87.609 260.557,86.609 260.5,85.5 Z"/></g>
<g><path style="opacity:1" fill="#e25353" d="M 18.5,84.5 C 19.1667,84.8333 19.8333,85.1667 20.5,85.5C 20.4142,86.4959 20.7476,87.3292 21.5,88C 37.8299,88.4999 54.1633,88.6666 70.5,88.5C 69.8333,89.1667 69.1667,89.8333 68.5,90.5C 52.4965,90.6666 36.4965,90.4999 20.5,90C 19.0993,89.5899 17.766,89.0899 16.5,88.5C 16.5,87.5 16.5,86.5 16.5,85.5C 17.4916,85.6716 18.1583,85.3382 18.5,84.5 Z"/></g>
<g><path style="opacity:1" fill="#de5555" d="M 120.5,76.5 C 119.735,79.0961 119.401,81.7628 119.5,84.5C 124.242,85.0189 128.909,85.0189 133.5,84.5C 131.22,86.2227 128.553,86.8893 125.5,86.5C 125.5,87.8333 125.5,89.1667 125.5,90.5C 117.472,90.831 109.472,90.4977 101.5,89.5C 104.306,88.8324 106.972,88.1657 109.5,87.5C 110.791,87.7373 111.791,87.404 112.5,86.5C 111.189,84.6642 110.022,82.6642 109,80.5C 108.202,78.7412 108.369,77.0745 109.5,75.5C 112.277,77.9635 115.277,79.9635 118.5,81.5C 118.077,79.2188 118.744,77.5521 120.5,76.5 Z M 119.5,84.5 C 119.5,85.5 119.5,86.5 119.5,87.5C 115.94,87.2825 115.94,86.2825 119.5,84.5 Z"/></g>
<g><path style="opacity:1" fill="#cd5958" d="M 100.5,57.5 C 100.334,66.8393 100.5,76.1726 101,85.5C 103.481,87.3137 106.315,87.9804 109.5,87.5C 106.972,88.1657 104.306,88.8324 101.5,89.5C 109.472,90.4977 117.472,90.831 125.5,90.5C 134.708,90.2068 143.875,90.5401 153,91.5C 156.33,91.2792 159.164,90.2792 161.5,88.5C 162.791,88.7373 163.791,88.404 164.5,87.5C 166.514,87.6085 168.18,86.9418 169.5,85.5C 169.586,86.4959 169.252,87.3292 168.5,88C 166.579,88.3603 164.912,89.1936 163.5,90.5C 166.319,90.7423 169.319,90.7423 172.5,90.5C 172.389,91.1174 172.056,91.6174 171.5,92C 163.699,93.2239 155.866,93.0572 148,91.5C 135.948,91.4136 123.948,91.7469 112,92.5C 107.511,91.9011 103.011,91.4011 98.5,91C 96.9443,90.2798 95.9443,89.1132 95.5,87.5C 97.3464,87.7778 98.6798,87.1112 99.5,85.5C 98.8776,80.1861 98.211,74.8527 97.5,69.5C 95.6043,70.6394 94.6043,69.9728 94.5,67.5C 95.3382,67.1583 95.6716,66.4916 95.5,65.5C 96.2216,65.9175 96.7216,66.5842 97,67.5C 98.3919,64.7216 98.8919,61.7216 98.5,58.5C 99.1667,58.1667 99.8333,57.8333 100.5,57.5 Z"/></g>
<g><path style="opacity:1" fill="#e25353" d="M 261.5,88.5 C 281.5,88.5 301.5,88.5 321.5,88.5C 325.649,87.9197 329.316,88.5864 332.5,90.5C 332.5,91.1667 332.167,91.5 331.5,91.5C 307.849,90.5849 284.182,90.2516 260.5,90.5C 260.328,89.5084 260.662,88.8417 261.5,88.5 Z"/></g>
<g><path style="opacity:0.912" fill="#c95756" d="M 16.5,88.5 C 17.766,89.0899 19.0993,89.5899 20.5,90C 36.4965,90.4999 52.4965,90.6666 68.5,90.5C 72.6643,90.9557 76.6643,91.6223 80.5,92.5C 64.2937,92.2503 48.127,92.2503 32,92.5C 27.5115,91.9011 23.0115,91.4011 18.5,91C 17.244,90.5831 16.5774,89.7498 16.5,88.5 Z"/></g>
<g><path style="opacity:0.987" fill="#c95857" d="M 254.5,87.5 C 254.141,89.371 253.141,90.871 251.5,92C 243.699,93.2239 235.866,93.0572 228,91.5C 215.948,91.4136 203.948,91.7469 192,92.5C 187.322,92.0558 182.822,91.3891 178.5,90.5C 188.833,90.5 199.167,90.5 209.5,90.5C 223.183,90.3547 236.85,90.688 250.5,91.5C 250.5,90.5 250.5,89.5 250.5,88.5C 251.959,88.5674 253.292,88.2341 254.5,87.5 Z"/></g>
<g><path style="opacity:1" fill="#c95a59" d="M 258.5,90.5 C 259.167,90.5 259.833,90.5 260.5,90.5C 284.182,90.2516 307.849,90.5849 331.5,91.5C 329.169,92.3173 326.669,92.9839 324,93.5C 318.667,92.8333 313.333,92.1667 308,91.5C 295.948,91.4136 283.948,91.7469 272,92.5C 267.322,92.0558 262.822,91.3891 258.5,90.5 Z"/></g>
</svg>
