<?xml version="1.0" encoding="UTF-8"?>
<!DOCTYPE svg PUBLIC "-//W3C//DTD SVG 1.1//EN" "http://www.w3.org/Graphics/SVG/1.1/DTD/svg11.dtd">
<svg xmlns="http://www.w3.org/2000/svg" version="1.1" width="362px" height="100px" style="shape-rendering:geometricPrecision; text-rendering:geometricPrecision; image-rendering:optimizeQuality; fill-rule:evenodd; clip-rule:evenodd" xmlns:xlink="http://www.w3.org/1999/xlink">
<g><path style="opacity:1" fill="#fe0000" d="M -0.5,-0.5 C 119.167,-0.5 238.833,-0.5 358.5,-0.5C 358.5,32.8333 358.5,66.1667 358.5,99.5C 238.833,99.5 119.167,99.5 -0.5,99.5C -0.5,66.1667 -0.5,32.8333 -0.5,-0.5 Z M 8.5,8.5 C 122.167,8.5 235.833,8.5 349.5,8.5C 349.5,36.1667 349.5,63.8333 349.5,91.5C 235.833,91.5 122.167,91.5 8.5,91.5C 8.5,63.8333 8.5,36.1667 8.5,8.5 Z M 38.5,43.5 C 41.1873,43.3359 43.854,43.5026 46.5,44C 47.8333,46.3333 47.8333,48.6667 46.5,51C 42.5,51.6667 38.5,51.6667 34.5,51C 33.5769,48.9592 33.2436,46.7925 33.5,44.5C 35.4147,44.7845 37.0813,44.4511 38.5,43.5 Z"/></g>
<g><path style="opacity:0.812" fill="#fe0000" d="M 150.5,18.5 C 155.185,19.763 156.518,22.5964 154.5,27C 145.486,28.2401 136.486,29.5734 127.5,31C 125.112,31.3034 122.945,32.1367 121,33.5C 119.782,38.4555 119.449,43.4555 120,48.5C 124.744,49.0641 129.577,49.0641 134.5,48.5C 134.777,45.5525 134.444,42.7191 133.5,40C 134.227,38.6012 134.727,37.1012 135,35.5C 137.022,34.0091 138.688,34.3424 140,36.5C 140.497,40.5239 140.331,44.5239 139.5,48.5C 148.167,48.5 156.833,48.5 165.5,48.5C 166.062,52.099 164.562,54.099 161,54.5C 155.172,53.8059 149.338,53.1392 143.5,52.5C 142.228,52.5698 141.062,52.9032 140,53.5C 140.39,61.4804 140.39,69.4804 140,77.5C 139.729,81.1305 138.062,82.1305 135,80.5C 134.832,71.1489 134.332,61.8155 133.5,52.5C 127.478,53.0026 121.645,54.3359 116,56.5C 114.739,56.2409 113.739,55.5742 113,54.5C 113.874,49.4213 114.707,44.2547 115.5,39C 114.433,35.2653 114.433,31.5986 115.5,28C 123.536,27.6683 131.536,26.3349 139.5,24C 143.787,23.19 147.454,21.3567 150.5,18.5 Z"/></g>
<g><path style="opacity:0.844" fill="#fe0000" d="M 218.5,20.5 C 221.238,19.9648 223.072,20.9648 224,23.5C 224.167,27.8333 224.333,32.1667 224.5,36.5C 223.572,47.523 223.572,58.523 224.5,69.5C 223.861,72.4748 223.361,75.4748 223,78.5C 222.121,81.3463 220.454,82.013 218,80.5C 217.342,78.2001 216.842,75.8668 216.5,73.5C 217.808,58.0047 217.808,42.5047 216.5,27C 216.338,24.498 217.005,22.3313 218.5,20.5 Z"/></g>
<g><path style="opacity:0.794" fill="#fe0000" d="M 275.5,24.5 C 280.844,24.334 286.177,24.5006 291.5,25C 293.957,26.1544 293.957,27.4877 291.5,29C 285.509,29.4995 279.509,29.6662 273.5,29.5C 273.392,27.4862 274.058,25.8195 275.5,24.5 Z"/></g>
<g><path style="opacity:0.782" fill="#fe0000" d="M 21.5,25.5 C 44.1765,25.167 66.8431,25.5003 89.5,26.5C 88.7469,28.7534 87.4136,30.5867 85.5,32C 81.3701,32.6722 77.3701,32.1722 73.5,30.5C 72.5581,30.6082 71.7247,30.9415 71,31.5C 70.0799,42.8642 69.0799,54.1976 68,65.5C 62.5117,75.8272 54.0117,80.1605 42.5,78.5C 40.9472,76.7349 40.6139,74.9015 41.5,73C 46.5836,72.8272 51.5836,72.1606 56.5,71C 61.1511,68.2091 63.6511,64.0424 64,58.5C 64.4998,49.1726 64.6665,39.8393 64.5,30.5C 61.5327,30.0023 58.5327,29.669 55.5,29.5C 43.7502,29.8359 32.0835,30.8359 20.5,32.5C 18.7336,32.5658 17.7336,31.7324 17.5,30C 18.3441,27.9933 19.6774,26.4933 21.5,25.5 Z"/></g>
<g><path style="opacity:0.809" fill="#fe0000" d="M 302.5,29.5 C 309.012,30.5358 315.512,30.5358 322,29.5C 324.833,29.6667 326.333,31.1667 326.5,34C 325.444,39.2306 323.778,44.2306 321.5,49C 316.923,49.6521 312.423,50.4854 308,51.5C 305.986,55.7158 305.486,60.0492 306.5,64.5C 315.148,68.112 324.148,69.2786 333.5,68C 337.017,65.9006 340.684,64.4006 344.5,63.5C 342.58,74.9705 335.913,79.1372 324.5,76C 317.094,73.8646 309.761,71.5313 302.5,69C 300.335,64.8863 300.001,60.5529 301.5,56C 301.336,52.9559 300.836,50.1226 300,47.5C 300.5,47 301,46.5 301.5,46C 306.372,45.7538 311.205,45.2538 316,44.5C 318.893,41.8286 319.726,38.6619 318.5,35C 312.496,34.6997 306.496,34.8663 300.5,35.5C 300.253,33.1417 300.919,31.1417 302.5,29.5 Z"/></g>
<g><path style="opacity:0.798" fill="#fe0000" d="M 29.5,38.5 C 37.1417,39.1918 44.8084,39.6918 52.5,40C 53.8045,40.804 54.4712,41.9707 54.5,43.5C 53.6417,47.6019 52.475,51.6019 51,55.5C 44.2426,56.6607 37.4092,57.1607 30.5,57C 28.2931,50.9358 27.9597,44.7692 29.5,38.5 Z M 38.5,43.5 C 37.0813,44.4511 35.4147,44.7845 33.5,44.5C 33.2436,46.7925 33.5769,48.9592 34.5,51C 38.5,51.6667 42.5,51.6667 46.5,51C 47.8333,48.6667 47.8333,46.3333 46.5,44C 43.854,43.5026 41.1873,43.3359 38.5,43.5 Z"/></g>
<g><path style="opacity:0.786" fill="#fe0000" d="M 269.5,42.5 C 275.537,42.1707 281.537,42.5041 287.5,43.5C 286.702,51.7525 286.702,60.0858 287.5,68.5C 290.167,66.8333 292.833,65.1667 295.5,63.5C 297.052,66.5674 296.385,69.0674 293.5,71C 288.15,74.0076 283.15,77.5076 278.5,81.5C 276.954,80.7884 275.954,79.6217 275.5,78C 276.924,74.9078 278.757,72.0745 281,69.5C 281.887,62.1216 282.054,54.7882 281.5,47.5C 276.802,47.7096 272.136,47.8763 267.5,48C 267.043,47.586 266.709,47.086 266.5,46.5C 267.524,45.1482 268.524,43.8149 269.5,42.5 Z"/></g>
<g><path style="opacity:0.746" fill="#fe0000" d="M 201.5,45.5 C 207.067,44.7532 208.9,47.0866 207,52.5C 201.167,57.6667 195.333,62.8333 189.5,68C 188.552,68.4828 187.552,68.6495 186.5,68.5C 186.491,66.6916 186.991,65.0249 188,63.5C 193.486,58.1885 197.986,52.1885 201.5,45.5 Z"/></g>
<g><path style="opacity:0.765" fill="#fe0000" d="M 235.5,45.5 C 243.502,51.8383 252.169,57.1717 261.5,61.5C 262.521,62.0016 262.688,62.6683 262,63.5C 257.149,66.888 252.316,67.0547 247.5,64C 242.805,58.7725 238.472,53.2725 234.5,47.5C 234.863,46.8165 235.196,46.1499 235.5,45.5 Z"/></g>
<g><path style="opacity:0.771" fill="#fe0000" d="M 121.5,58.5 C 122.5,58.5 123.5,58.5 124.5,58.5C 122.762,67.4166 117.762,73.9166 109.5,78C 107.527,78.4955 105.527,78.6621 103.5,78.5C 103.34,76.8008 103.506,75.1341 104,73.5C 111.549,70.4479 117.382,65.4479 121.5,58.5 Z"/></g>
<g><path style="opacity:0.772" fill="#fe0000" d="M 147.5,58.5 C 154.179,63.8432 161.512,68.1765 169.5,71.5C 170.833,72.5 170.833,73.5 169.5,74.5C 166.038,76.3912 162.372,76.8912 158.5,76C 154.667,71.5 150.833,67 147,62.5C 146.421,61.0715 146.588,59.7382 147.5,58.5 Z"/></g>
</svg>
