<?xml version="1.0" encoding="UTF-8"?>
<!DOCTYPE svg PUBLIC "-//W3C//DTD SVG 1.1//EN" "http://www.w3.org/Graphics/SVG/1.1/DTD/svg11.dtd">
<svg xmlns="http://www.w3.org/2000/svg" version="1.1" width="512px" height="512px" style="shape-rendering:geometricPrecision; text-rendering:geometricPrecision; image-rendering:optimizeQuality; fill-rule:evenodd; clip-rule:evenodd" xmlns:xlink="http://www.w3.org/1999/xlink">
<g><path style="opacity:0.946" fill="#f90000" d="M 230.5,1.5 C 234.5,1.5 238.5,1.5 242.5,1.5C 242.811,8.08982 242.478,14.5898 241.5,21C 200.982,23.9505 163.649,36.2839 129.5,58C 119.321,65.2567 109.321,72.7567 99.5,80.5C 93.9544,76.138 89.4544,71.138 86,65.5C 127.4,29.0535 175.566,7.72013 230.5,1.5 Z"/></g>
<g><path style="opacity:0.945" fill="#f90000" d="M 268.5,1.5 C 328.694,4.78068 381.027,26.4473 425.5,66.5C 421.167,71.5 416.5,76.1667 411.5,80.5C 381.643,54.4615 347.31,36.6282 308.5,27C 295.638,24.0941 282.638,22.0941 269.5,21C 268.522,14.5898 268.189,8.08982 268.5,1.5 Z"/></g>
<g><path style="opacity:0.956" fill="#f90000" d="M 65.5,85.5 C 71.0878,89.4171 76.0878,94.0838 80.5,99.5C 44.9177,140.025 25.251,187.358 21.5,241.5C 14.8333,241.5 8.16667,241.5 1.5,241.5C 5.23729,182.058 26.5706,130.058 65.5,85.5 Z"/></g>
<g><path style="opacity:0.949" fill="#fa0000" d="M 443.5,85.5 C 444.239,85.369 444.906,85.5357 445.5,86C 484.57,130.335 505.903,182.168 509.5,241.5C 502.5,241.5 495.5,241.5 488.5,241.5C 486.6,200.969 474.767,163.636 453,129.5C 445.743,119.321 438.243,109.321 430.5,99.5C 434.855,94.8131 439.188,90.1464 443.5,85.5 Z"/></g>
<g><path style="opacity:0.923" fill="#fb0000" d="M 138.5,93.5 C 144.211,93.0494 147.877,95.5494 149.5,101C 143.97,118.391 136.303,134.724 126.5,150C 129.391,156.006 131.891,162.173 134,168.5C 134.67,176.161 131.17,179.327 123.5,178C 122.692,177.692 122.025,177.192 121.5,176.5C 115.459,161.416 108.126,147.083 99.5,133.5C 101.324,127.42 105.324,125.253 111.5,127C 113.788,129.743 115.955,132.577 118,135.5C 124.637,123.251 130.304,110.585 135,97.5C 135.69,95.6498 136.856,94.3164 138.5,93.5 Z"/></g>
<g><path style="opacity:0.923" fill="#fb0000" d="M 364.5,93.5 C 369.934,93.5409 373.6,96.0409 375.5,101C 369.984,118.365 362.317,134.698 352.5,150C 356.032,157.592 358.532,165.426 360,173.5C 356.797,178.916 352.464,179.916 347,176.5C 344.941,172.323 343.274,167.99 342,163.5C 336.737,153.302 331.237,143.302 325.5,133.5C 327.28,127.441 331.28,125.274 337.5,127C 339.62,129.409 341.62,131.909 343.5,134.5C 350.319,123.189 355.819,111.189 360,98.5C 361.025,96.313 362.525,94.6464 364.5,93.5 Z"/></g>
<g><path style="opacity:0.944" fill="#fb0000" d="M 257.5,94.5 C 263.462,93.3105 267.462,95.4772 269.5,101C 267.601,105.524 265.601,110.024 263.5,114.5C 275.152,115.333 286.819,115.833 298.5,116C 307.548,118.712 313.714,124.546 317,133.5C 318.11,137.603 318.944,141.77 319.5,146C 319.433,163.367 319.433,180.534 319.5,197.5C 318.842,214.648 310.175,224.815 293.5,228C 274.5,228.667 255.5,228.667 236.5,228C 225.277,226.784 217.444,220.951 213,210.5C 211.871,197.553 211.371,184.553 211.5,171.5C 211.371,158.447 211.871,145.447 213,132.5C 219.792,119.414 230.626,113.58 245.5,115C 249.904,108.353 253.904,101.52 257.5,94.5 Z M 239.5,129.5 C 256.503,129.333 273.503,129.5 290.5,130C 298.574,130.41 303.074,134.577 304,142.5C 304.5,149.826 304.666,157.159 304.5,164.5C 278.5,164.5 252.5,164.5 226.5,164.5C 226.083,155.085 226.583,145.752 228,136.5C 230.756,132.215 234.59,129.882 239.5,129.5 Z M 226.5,179.5 C 252.5,179.5 278.5,179.5 304.5,179.5C 309.309,210.175 296.475,221.509 266,213.5C 256.833,213.333 247.667,213.167 238.5,213C 232.863,212.447 229.029,209.614 227,204.5C 226.5,196.173 226.334,187.84 226.5,179.5 Z"/></g>
<g><path style="opacity:0.928" fill="#fb0000" d="M 161.5,125.5 C 167.984,125.815 171.151,129.148 171,135.5C 159.7,161.599 147.2,187.099 133.5,212C 145.687,209.495 157.687,206.162 169.5,202C 165.886,196.1 162.553,190.1 159.5,184C 161.091,178.41 164.758,176.076 170.5,177C 181.044,190.588 188.544,205.754 193,222.5C 194.628,232.088 190.795,235.254 181.5,232C 179.257,226.854 177.09,221.687 175,216.5C 150.723,223.695 126.223,230.195 101.5,236C 95.0024,237.593 91.6691,235.093 91.5,228.5C 91.3262,226.307 91.9929,224.473 93.5,223C 100.526,220.936 107.526,218.769 114.5,216.5C 129.723,188.053 143.89,159.053 157,129.5C 158.397,127.93 159.897,126.596 161.5,125.5 Z"/></g>
<g><path style="opacity:0.927" fill="#fb0000" d="M 386.5,125.5 C 393.88,125.05 397.38,128.384 397,135.5C 385.812,161.542 373.312,186.876 359.5,211.5C 371.124,209.479 382.791,206.646 394.5,203C 394.833,202.667 395.167,202.333 395.5,202C 391.886,196.1 388.553,190.1 385.5,184C 387.091,178.41 390.758,176.076 396.5,177C 409.387,192.603 416.887,210.436 419,230.5C 415.528,233.658 411.694,234.158 407.5,232C 405.338,226.85 403.171,221.684 401,216.5C 375.769,224.075 350.269,230.741 324.5,236.5C 317.545,235.153 315.379,231.153 318,224.5C 319.8,222.683 321.966,221.516 324.5,221C 329.847,219.829 335.181,218.663 340.5,217.5C 348.031,202.106 355.864,186.773 364,171.5C 371.054,157.002 377.721,142.335 384,127.5C 384.995,126.934 385.828,126.267 386.5,125.5 Z"/></g>
<g><path style="opacity:0.926" fill="#fb0000" d="M 249.5,234.5 C 254.28,233.641 257.78,235.308 260,239.5C 260.5,251.495 260.667,263.495 260.5,275.5C 310.168,275.333 359.834,275.5 409.5,276C 413.212,278.513 414.378,282.013 413,286.5C 411.786,288.049 410.286,289.215 408.5,290C 366.496,290.167 324.496,290.667 282.5,291.5C 313.84,328.634 352.84,354.467 399.5,369C 402.347,373.395 402.014,377.561 398.5,381.5C 397.393,382.022 396.226,382.355 395,382.5C 340.833,366.79 296.999,336.457 263.5,291.5C 262.675,290.614 261.675,290.281 260.5,290.5C 260.667,330.835 260.5,371.168 260,411.5C 257.789,416.907 253.955,418.407 248.5,416C 247.299,415.097 246.465,413.931 246,412.5C 245.667,373.833 245.333,335.167 245,296.5C 223.679,324.496 197.512,346.663 166.5,363C 145.858,373.655 124.525,382.655 102.5,390C 96.2426,391.743 92.5759,389.41 91.5,383C 91.7952,380.077 93.1285,377.743 95.5,376C 135.946,363.995 172.28,344.661 204.5,318C 213.424,309.914 221.424,301.081 228.5,291.5C 183.837,290.667 139.17,290.167 94.5,290C 90.8775,285.998 90.5442,281.665 93.5,277C 144.107,275.514 194.774,275.014 245.5,275.5C 245.333,263.162 245.5,250.829 246,238.5C 246.69,236.65 247.856,235.316 249.5,234.5 Z"/></g>
<g><path style="opacity:0.951" fill="#f90000" d="M 1.5,269.5 C 8.16667,269.5 14.8333,269.5 21.5,269.5C 24.367,309.933 36.5337,347.266 58,381.5C 65.2567,391.679 72.7567,401.679 80.5,411.5C 76.1667,416.5 71.5,421.167 66.5,425.5C 26.7447,381.289 5.078,329.289 1.5,269.5 Z"/></g>
<g><path style="opacity:0.953" fill="#f90000" d="M 488.5,269.5 C 495.5,269.5 502.5,269.5 509.5,269.5C 505.922,329.289 484.255,381.289 444.5,425.5C 439.5,421.167 434.833,416.5 430.5,411.5C 456.758,380.986 474.592,345.986 484,306.5C 486.706,294.308 488.206,281.975 488.5,269.5 Z"/></g>
<g><path style="opacity:0.95" fill="#fa0000" d="M 98.5,430.5 C 99.9217,430.709 101.255,431.209 102.5,432C 142.433,467.047 189.1,486.213 242.5,489.5C 242.666,495.842 242.5,502.175 242,508.5C 182.471,506.067 130.471,485.067 86,445.5C 85.3333,444.833 85.3333,444.167 86,443.5C 90.3702,439.298 94.5368,434.964 98.5,430.5 Z"/></g>
<g><path style="opacity:0.946" fill="#f90000" d="M 410.5,430.5 C 415.74,434.233 420.574,438.566 425,443.5C 425.667,444.167 425.667,444.833 425,445.5C 380.529,485.067 328.529,506.067 269,508.5C 268.812,502.252 268.312,496.085 267.5,490C 322.201,486.396 369.868,466.563 410.5,430.5 Z"/></g>
</svg>
