<?xml version="1.0" encoding="UTF-8"?>
<!DOCTYPE svg PUBLIC "-//W3C//DTD SVG 1.1//EN" "http://www.w3.org/Graphics/SVG/1.1/DTD/svg11.dtd">
<svg xmlns="http://www.w3.org/2000/svg" version="1.1" width="512px" height="512px" style="shape-rendering:geometricPrecision; text-rendering:geometricPrecision; image-rendering:optimizeQuality; fill-rule:evenodd; clip-rule:evenodd" xmlns:xlink="http://www.w3.org/1999/xlink">
<g><path style="opacity:0.986" fill="#313131" d="M 233.5,-0.5 C 326.167,-0.5 418.833,-0.5 511.5,-0.5C 511.5,91.8333 511.5,184.167 511.5,276.5C 500.209,372.268 451.875,442.435 366.5,487C 338.138,500.338 308.471,508.504 277.5,511.5C 262.5,511.5 247.5,511.5 232.5,511.5C 148.264,501.725 83.0973,461.392 37,390.5C 15.9696,355.576 3.4696,317.909 -0.5,277.5C -0.5,261.833 -0.5,246.167 -0.5,230.5C 10.259,147.293 50.5923,82.793 120.5,37C 155.418,15.9716 193.085,3.47159 233.5,-0.5 Z M 236.5,15.5 C 322.833,15.5 409.167,15.5 495.5,15.5C 495.667,101.167 495.5,186.834 495,272.5C 486.858,354.888 448.024,418.054 378.5,462C 312.728,499.04 244.061,505.373 172.5,481C 95.7766,450.61 45.9432,395.776 23,316.5C 2.14924,223.022 25.9826,143.189 94.5,77C 135.254,41.4598 182.587,20.9598 236.5,15.5 Z M 107.5,234.5 C 113.5,234.5 119.5,234.5 125.5,234.5C 125.5,244.167 125.5,253.833 125.5,263.5C 119.5,263.5 113.5,263.5 107.5,263.5C 107.5,253.833 107.5,244.167 107.5,234.5 Z"/></g>
<g><path style="opacity:0.991" fill="#313131" d="M 399.5,148.5 C 411.167,148.5 422.833,148.5 434.5,148.5C 435.514,159.954 432.68,170.287 426,179.5C 416.422,187.698 405.255,192.198 392.5,193C 370.836,193.5 349.169,193.667 327.5,193.5C 326.44,206.495 325.44,219.495 324.5,232.5C 332.167,232.5 339.833,232.5 347.5,232.5C 347.5,222.5 347.5,212.5 347.5,202.5C 361.167,202.5 374.833,202.5 388.5,202.5C 388.5,212.5 388.5,222.5 388.5,232.5C 406.5,232.5 424.5,232.5 442.5,232.5C 442.5,244.833 442.5,257.167 442.5,269.5C 424.5,269.5 406.5,269.5 388.5,269.5C 388.667,287.503 388.5,305.503 388,323.5C 389.149,350.351 376.316,363.184 349.5,362C 343.175,362.5 336.842,362.666 330.5,362.5C 330.5,344.167 330.5,325.833 330.5,307.5C 333.941,307.699 337.274,307.199 340.5,306C 342.815,304.891 344.315,303.057 345,300.5C 347.128,290.293 347.961,279.96 347.5,269.5C 326.833,269.5 306.167,269.5 285.5,269.5C 288.112,233.49 290.945,197.49 294,161.5C 323.762,160.671 353.595,160.171 383.5,160C 388.464,159.964 393.131,158.798 397.5,156.5C 399.229,154.149 399.896,151.482 399.5,148.5 Z"/></g>
<g><path style="opacity:0.997" fill="#313131" d="M 63.5,154.5 C 118.167,154.5 172.833,154.5 227.5,154.5C 228.021,165.881 228.355,176.714 228.5,187C 228.043,187.414 227.709,187.914 227.5,188.5C 222.88,189.493 218.214,189.827 213.5,189.5C 213.667,234.168 213.5,278.835 213,323.5C 213.295,333.359 211.295,342.692 207,351.5C 201.473,357.349 194.639,360.515 186.5,361C 165.836,361.5 145.169,361.667 124.5,361.5C 124.5,343.5 124.5,325.5 124.5,307.5C 139.837,307.667 155.17,307.5 170.5,307C 174,306.167 176.167,304 177,300.5C 178.455,263.531 178.955,226.531 178.5,189.5C 140.167,189.5 101.833,189.5 63.5,189.5C 63.5,177.833 63.5,166.167 63.5,154.5 Z"/></g>
<g><path style="opacity:0.993" fill="#313131" d="M 71.5,202.5 C 101.5,202.5 131.5,202.5 161.5,202.5C 161.5,233.833 161.5,265.167 161.5,296.5C 131.5,296.5 101.5,296.5 71.5,296.5C 71.5,265.167 71.5,233.833 71.5,202.5 Z M 107.5,234.5 C 107.5,244.167 107.5,253.833 107.5,263.5C 113.5,263.5 119.5,263.5 125.5,263.5C 125.5,253.833 125.5,244.167 125.5,234.5C 119.5,234.5 113.5,234.5 107.5,234.5 Z"/></g>
<g><path style="opacity:0.996" fill="#313131" d="M 302.5,277.5 C 311.336,277.031 320.003,277.531 328.5,279C 327.789,292.45 326.956,305.95 326,319.5C 322.199,348.468 305.699,362.468 276.5,361.5C 276.5,343.5 276.5,325.5 276.5,307.5C 288.746,305.431 296.913,298.431 301,286.5C 302.149,283.607 302.649,280.607 302.5,277.5 Z"/></g>
<g><path style="opacity:0.996" fill="#313131" d="M 396.5,277.5 C 405.167,277.5 413.833,277.5 422.5,277.5C 423.596,288.191 428.263,297.024 436.5,304C 439.893,306.076 443.56,307.242 447.5,307.5C 447.5,325.5 447.5,343.5 447.5,361.5C 419.3,362.137 403.133,348.471 399,320.5C 397.602,306.201 396.768,291.868 396.5,277.5 Z"/></g>
</svg>
